<svg xmlns="http://www.w3.org/2000/svg" width="62.082" height="50" viewBox="0 0 62.082 50">
  <g id="Group_43" data-name="Group 43" transform="translate(4.862 -76.068)">
    <path id="Subtraction_5" data-name="Subtraction 5" d="M-629.862-1494.956a24.844,24.844,0,0,1-9.731-1.964,24.919,24.919,0,0,1-7.946-5.358,24.919,24.919,0,0,1-5.358-7.947,24.845,24.845,0,0,1-1.965-9.731,24.843,24.843,0,0,1,1.965-9.731,24.917,24.917,0,0,1,5.358-7.946,24.918,24.918,0,0,1,7.946-5.358,24.844,24.844,0,0,1,9.731-1.964,24.732,24.732,0,0,1,11.356,2.722,25.23,25.23,0,0,1,8.644,7.274l.074-.1h0l0,0a25.147,25.147,0,0,0,3.621,3.62c2.735,2.227,5.473,3.4,7.918,3.4a8,8,0,0,0,5.385-2.164c.146,15.942.06,19.513.016,20.308a8,8,0,0,0-5.4-2.177c-3.143,0-6.115,1.912-8.056,3.516a25.469,25.469,0,0,0-3.492,3.516s.091.187.275.531c-.125-.16-.237-.3-.345-.449a25.237,25.237,0,0,1-8.644,7.276A24.729,24.729,0,0,1-629.862-1494.956Z" transform="translate(650 1621.023)" fill="#e7def8"/>
    <path id="ic_explore_24px" d="M18.5,16.685A1.815,1.815,0,1,0,20.315,18.5,1.81,1.81,0,0,0,18.5,16.685ZM18.5,2A16.5,16.5,0,1,0,35,18.5,16.506,16.506,0,0,0,18.5,2Zm3.614,20.114L8.6,28.4l6.286-13.513L28.4,8.6Z" transform="translate(2.138 83.068)" fill="#4b3983"/>
  </g>
</svg>
