<svg xmlns="http://www.w3.org/2000/svg" width="62.082" height="50" viewBox="0 0 62.082 50">
  <g id="Group_43" data-name="Group 43" transform="translate(4.862 -296.068)">
    <path id="Subtraction_4" data-name="Subtraction 4" d="M-629.862-1494.956a24.844,24.844,0,0,1-9.731-1.964,24.919,24.919,0,0,1-7.946-5.358,24.919,24.919,0,0,1-5.358-7.947,24.845,24.845,0,0,1-1.965-9.731,24.843,24.843,0,0,1,1.965-9.731,24.917,24.917,0,0,1,5.358-7.946,24.918,24.918,0,0,1,7.946-5.358,24.844,24.844,0,0,1,9.731-1.964,24.732,24.732,0,0,1,11.356,2.722,25.23,25.23,0,0,1,8.644,7.274l.074-.1h0l0,0a25.147,25.147,0,0,0,3.621,3.62c2.735,2.227,5.473,3.4,7.918,3.4a8,8,0,0,0,5.385-2.164c.146,15.942.06,19.513.016,20.308a8,8,0,0,0-5.4-2.177c-3.143,0-6.115,1.912-8.056,3.516a25.469,25.469,0,0,0-3.492,3.516s.091.187.275.531c-.125-.16-.237-.3-.345-.449a25.237,25.237,0,0,1-8.644,7.276A24.729,24.729,0,0,1-629.862-1494.956Z" transform="translate(650 1841.023)" fill="#e7def8"/>
    <g id="Group_31" data-name="Group 31" transform="translate(-230.862 -134.932)">
      <path id="ic_photo_library_24px" d="M35,25.1V5.3A3.31,3.31,0,0,0,31.7,2H11.9A3.31,3.31,0,0,0,8.6,5.3V25.1a3.31,3.31,0,0,0,3.3,3.3H31.7A3.31,3.31,0,0,0,35,25.1ZM16.85,18.5,20.2,22.972l4.9-6.122,6.6,8.25H11.9ZM2,8.6V31.7A3.31,3.31,0,0,0,5.3,35H28.4V31.7H5.3V8.6Z" transform="translate(233 437)" fill="#4b3983"/>
      <text id="my" transform="translate(242 450)" fill="#e7def8" font-size="20" font-family="Caveat-Medium, Caveat" font-weight="500"><tspan x="0" y="0">my</tspan></text>
    </g>
  </g>
</svg>
